<?xml version="1.0" encoding="utf-8"?>
<!-- Generator: Adobe Illustrator 16.0.3, SVG Export Plug-In . SVG Version: 6.00 Build 0)  -->
<!DOCTYPE svg PUBLIC "-//W3C//DTD SVG 1.1//EN" "http://www.w3.org/Graphics/SVG/1.1/DTD/svg11.dtd">
<svg version="1.1" id="Laag_3_xA0_Image_1_" xmlns="http://www.w3.org/2000/svg" xmlns:xlink="http://www.w3.org/1999/xlink"
	 x="0px" y="0px" width="110.318px" height="469.784px" viewBox="0 0 110.318 469.784" enable-background="new 0 0 110.318 469.784"
	 xml:space="preserve">
<g id="Flags">
	<polygon fill="#697A7A" points="35.938,82.346 21.625,53.471 20.292,53.971 35.438,83.659 	"/>
	<polygon fill="#697A7A" points="76,82.617 96.667,51.284 97.833,52.284 77.167,82.95 	"/>
	<path fill="#0B0BFC" d="M24.542,60.95c0,0-11,6.667-12,6.667s-1.084,0.833-1.084,0.833l1.334,3l13.5-7.167L24.542,60.95z"/>
	<polygon fill="#FFFFFF" points="9.458,65.117 11.458,68.45 24.542,60.95 22.125,56.284 	"/>
	<path fill="#FF0031" d="M20.792,53.784c0,0-5.667,5.5-8.167,6.333c-2.5,0.833-3.833,1-4.667,1.167
		c-0.833,0.167,1.5,3.833,1.5,3.833s8.167-4.167,9.834-6c1.666-1.833,2.833-2.833,2.833-2.833L20.792,53.784z"/>
	<path fill="#0B0BFC" d="M105.958,66.682c0,0-11.247-6.241-11.744-7.109c-0.496-0.868-1.261-0.527-1.261-0.527l-1.942,2.646
		l12.922,8.163L105.958,66.682z"/>
	<polygon fill="#FFFFFF" points="94.854,55.655 92.953,59.046 105.958,66.682 108.81,62.268 	"/>
	<path fill="#FF0031" d="M110.318,59.869c0,0-7.588-2.19-9.552-3.946c-1.964-1.757-2.771-2.832-3.329-3.473
		c-0.559-0.641-2.583,3.205-2.583,3.205s7.67,5.022,10.089,5.559c2.419,0.537,3.866,1.054,3.866,1.054L110.318,59.869z"/>
</g>
<polygon fill="#C4AF9C" points="31.333,223.45 26.333,469.451 0,459.117 7.667,227.784 "/>
<polygon fill="#B2ADA1" points="43,223.117 37,467.451 26.667,468.117 31.333,223.45 "/>
<polygon fill="#C4AF9C" points="77.063,224.263 68.313,468.346 37.25,467.971 43.063,223.263 "/>
<polygon fill="#B2ADA1" points="83.333,224.117 76,468.784 68,468.784 77,224.117 "/>
<polygon fill="#C4AF9C" points="97.667,223.117 88.333,469.784 76,468.784 84.333,225.45 "/>
<g id="Cross">
	<polygon fill="#2B1E05" points="53.875,338.534 53.625,341.159 55,341.034 54.875,342.409 53.5,342.534 53.125,345.159 
		52.25,345.159 52.625,342.409 51.125,342.409 51.375,341.159 52.625,341.284 52.75,338.409 	"/>
	<polygon fill="#2B1E05" points="67.5,339.159 66.75,341.784 65.5,341.534 65.5,342.659 66.5,343.034 66.125,346.034 
		67.625,346.284 68.125,343.034 69.375,343.409 69.5,342.159 68.25,341.909 68.875,339.534 	"/>
	<polygon fill="#2B1E05" points="53,296.159 52.625,298.534 54,298.534 53.875,299.659 52.625,299.909 52.375,303.534 
		51.375,303.409 51.5,299.909 50,299.784 50,298.534 51.25,298.534 51.625,296.284 	"/>
	<polygon fill="#2B1E05" points="69.5,296.659 68.75,298.284 67.375,298.534 67.375,299.659 68.625,299.534 68.75,303.159 
		69.875,303.034 69.625,299.659 70.75,299.784 71.125,298.534 70.125,298.409 70.5,296.534 	"/>
	<polygon fill="#2B1E05" points="53.875,264.159 53.875,266.159 55.375,266.784 55.125,267.659 53.5,267.534 53.375,270.284 
		52.25,270.159 52.5,267.284 51.125,266.784 51.375,265.534 52.625,265.909 52.5,263.784 	"/>
	<polygon fill="#2B1E05" points="70,264.659 69.875,267.659 68.25,267.409 68.375,268.784 69.375,269.284 69.5,272.034 
		70.625,272.159 70.75,269.409 72.25,269.534 72.375,267.784 71.125,267.534 71.25,264.784 	"/>
</g>
<path fill="#F3E3A6" d="M85.375,153.284c-0.125-1.625-0.25-4.125-1.375-6.5s-2.75-5.375-3.625-6.125s-0.25-0.25,0.125-1.125
	s0.75-1.125,0.125-1.875s-1.125-0.375-1-1.75s0.5-1.5,1.125-2.125s1.125-0.75,0.625-1.625s-2.25-1.625-2.25-2.875
	s0.125-24.5,0.125-24.5l1.25,0.25c0,0,0.875-3.375,0.875-3.875s-1.5-2-1.5-2s2.125-2,2.125-3.625s-10.25-1.938-11.5-3.188
	s-28.625-0.563-28.625-0.563l-8.75,1c0,0,0.375,2-0.25,2.125s-2.438-0.5-2.938-0.875s-1.625,0.438-1,1.5
	c0.992,1.687,1.313,1.625,2.063,2s0.75,1,0.25,2.75s-1.75,1.375-0.375,2.25s1.875-0.125,1.875,0.625s-0.875,17.625-1,19.25
	s-0.625,7.5-0.625,7.5s-0.875,1.25-1.5,1.375s0.875,0.625,1.125,1.125s0.25,3.125,0.375,3.625s-1.75,4.25-2.5,6.75
	s-2.375,6.875-2.5,9s0.5,2.688,0.5,2.688s31-3.75,57.25,1.938C85.771,156.82,85.5,154.909,85.375,153.284z"/>
<path fill="#F3E3A6" d="M76,81.721c-1-1.25-1.625-5.125-1.875-7.375s0.75-22,0.75-22s2.125-1.125,1.375-2s-2.375-0.875-3-1.625
	s-3.875-4.375-4.125-5.25s-0.25-4.75-0.5-5.5s-2.083-0.604-2.458-1.979s-1.917-6.021-1.792-7.521s-0.375-3,0.625-3.5
	s1.875-0.25,1.25-1.25s-1.375-0.375-1.625-1.625s0.75-1.625-0.375-3.375s-1.875-2.125-1.875-2.5s2.25-0.875,2-2.75
	s-0.125-2.25-1.375-1.5s-2.125,1.875-2,0s1.458-1.646,1.333-3.146s-0.458-1.104-1.083-1.854s0.25-6.5-0.5-6.875s-0.5,0.375-1,1.75
	s-0.625,4.75-0.625,4.75s-1.5,0.125-1.625,1.375s0.375,2.25,0.875,2.625s0.375,1.75,0.125,2.125s-0.333,0.354-0.75,0.125
	c-1.225-0.673-1.72-1.792-2.125-0.75c-0.917,2.354,0.667,3.271,0.5,3.896c-0.603,2.26-1.464,5.081-2.958,5.646
	c-1.302,0.492-1.998,1.849-0.417,2.458c2,0.771-1.625,8.5-2.125,10.25s-0.625,2.125-1.5,2.25S47.5,36.971,47.5,36.971
	s0,1.125-0.125,2s-2,3.375-3.25,5s-2.875,3.125-3.75,3.5s-1,0.75-0.5,1.875c0.11,0.247,1.185,0.481,1.563,0.438
	c0.269,0.773-0.563,14.813-0.938,15.938s-0.75,7.625-1.125,9.25s-6.25,12.875-6.25,12.875s8.5-2,9.875-1.5s9.917,0.625,9.917,0.625
	s13.916,0.458,15.666,0.583c0.275,0.02,0.475-0.001,0.624-0.049c-0.023,0.282-0.04,0.466-0.04,0.466l10.083,2
	c0.125-0.375,0.25-2.25,0.25-3.75S77,82.971,76,81.721z M68.344,50.737l-1.579-0.389C67.238,50.442,67.781,50.577,68.344,50.737z
	 M69.125,84.596c-0.027-0.39-0.174-0.806-0.371-1.229c0.244,0.258,0.431,0.475,0.496,0.604c0.106,0.213,0.106,0.973,0.072,1.772
	C69.236,85.393,69.154,85.006,69.125,84.596z"/>
<g>
	<path fill="#4C646B" d="M62.083,46.888c0,0-1.021-5.208-1.521-8.542s-0.521-9.729-0.521-10.896l-3.125-0.042
		c0,0-0.292,11.188-0.792,14.188s-0.708,5.125-0.708,5.125L62.083,46.888z"/>
	<path fill="#4C646B" d="M55.458,27.45l-1.75,0.042c0,0-1.041,6.396-1.708,7.896s-4.479,9.625-5.813,11.458l7.438-0.125
		L55.458,27.45z"/>
	<path fill="#4C646B" d="M61.542,27.534L64,47.096l6,0.5c0,0-3.548-4.518-4.167-7.458c-0.666-3.167-2.375-11.104-2.541-12.604
		H61.542z"/>
	<polygon fill="#4C646B" points="52.167,97.888 37.667,98.555 33,152.721 50.75,151.221 	"/>
	<polygon fill="#4C646B" points="66.667,97.888 55,97.721 54.5,151.888 68.833,152.888 	"/>
	<polygon fill="#4C646B" points="76.5,100.721 69.833,98.138 71.083,153.471 79.75,154.846 	"/>
	<polygon fill="#4C646B" points="51.5,86.721 36.5,87.221 38.438,79.971 42.938,71.909 46,49.555 53.063,49.409 	"/>
	<path fill="#4C646B" d="M63.938,49.596c0,0.5-2.25,37.625-2.25,37.625l14.063,1.5l-4.375-16.875l-0.875-22L63.938,49.596z"/>
</g>
<path fill="#2B1E05" d="M50.5,85.284c0,0,1.25-31.375,1-32.375s-1.25-2.875-2.375-2.625s-1.75,1.375-2,2.875
	s-1.489,19.353-2.75,20.875c-3,3.625-4.438,9.563-4.938,11.125L50.5,85.284z"/>
<path fill="#2B1E05" d="M73.438,85.784c0,0-0.63-8.496-3.125-12.125c-1.375-2-0.387-17.548-0.375-18.5
	c0.063-5.188-4.011-4.174-4.875-3c-0.875,1.188-1.875,21.75-2.125,23.5s-0.625,7.938-0.625,8.688s0.063,1.604,0.938,1.229
	S73.438,85.784,73.438,85.784z"/>
<path fill="#2B1E05" d="M49.8,129.657c0,0,1.109-24.662,0.186-26.514c-0.924-1.852-1.193-2.595-3.705-3.03s-4.604,0.87-5.309,2.639
	c-0.703,1.769-1.834,20.805-1.834,20.805l0.279,6.143L49.8,129.657z"/>
<path fill="#2B1E05" d="M55.917,129.534c0,0,0.25-21.125,1-23.75s1.572-5.408,3.75-5.25c2.875,0.208,3.25,2.375,4,4.125
	s0.916,16.458,1.166,17.708s-0.666,6.542-0.166,7.292L55.917,129.534z"/>
<path fill="#2B1E05" d="M72.861,102.977c-0.497,0.294-0.802,0.772-0.84,1.293l-1.394,18.764c0,0-0.145,3.833,0.335,5.917
	c0.028,0.121,1.982,0.325,3.624,0.476c1.18,0.108,2.197-0.712,2.162-1.742l-0.654-19.4c0,0-0.144-6.375-1.87-5.875
	C73.627,102.582,73.184,102.785,72.861,102.977z"/>
<polygon fill="#E0BC0A" points="49.75,129.784 38.75,129.867 39.138,123.557 50.25,123.784 "/>
<polygon fill="#E0BC0A" points="55.792,122.784 55.792,129.909 65.667,129.659 65.917,123.659 "/>
<polygon fill="#E0BC0A" points="70.417,123.95 70.583,129.7 76.938,130.284 76.771,125.365 "/>
<path fill="#F3E3A6" d="M22.625,219.284L22,205.034l2.625-1.25c0,0,1.75-13.875,2-18.75s-0.938-27.25-0.938-27.25l7.188-1.875
	l-3.25,37.25l-0.375,23.75L22.625,219.284z"/>
<polygon fill="#F3E3A6" points="45.438,216.971 48.188,153.846 53.938,154.096 52.063,218.096 "/>
<path fill="#F3E3A6" d="M73.875,220.659c0,0,0.875-11.375,0.625-12.5s-3.375-7.625-3.5-9.5s-1.875-42.75-1.875-42.75l5.5-0.125
	c0,0,0.75,43.625,1.25,45s2.625,2.875,3.5,4S79,220.659,79,220.659H73.875z"/>
<path fill="#F3E3A6" d="M87.25,158.159l-6.75-0.25l-1.625,55.375L79,220.659l8.75,0.625c0,0,0-16.125,0-16.375s-2.5-3.375-2.5-6.875
	s-1.375-34.125-1.125-35.75S87.25,158.159,87.25,158.159z"/>
<path fill="#8C9A9B" d="M24.5,158.096c0,0-1,20.563-2.125,25.938s-3.875,18.25-5.625,20.5s-3.25,5.5-3.25,5.5l-0.875,11.5l10-2.25
	L22,205.034l2.625-1.25c0,0,2.375-19.25,2.375-22.875s-1-22.875-1-22.875L24.5,158.096z"/>
<polygon fill="#8C9A9B" points="32.938,155.284 27.5,218.034 46.5,218.034 48.875,154.221 "/>
<path fill="#8C9A9B" d="M53.75,153.971l-1.5,65.438l21.625,1.25l0.5-13c0,0-3.375-10-3.625-12s-1.688-40.188-1.688-40.188
	L53.75,153.971z"/>
<path fill="#8C9A9B" d="M75,156.534c0,0,0.25,43,0.875,44.25s0.625,2,1.75,2.625s1.75,1.375,1.75,1.375l1.125-46.875L75,156.534z"/>
<polygon fill="#F3E3A6" points="46.5,177.784 34,177.034 33.25,189.284 46.875,190.784 "/>
<polygon fill="#F3E3A6" points="54,176.534 53.75,188.534 68.375,190.284 69.125,177.284 "/>
<polygon fill="#F3E3A6" points="79.625,180.409 75.625,179.534 75.5,191.659 79.375,191.659 "/>
<path fill="#35467C" d="M39.75,179.159l-4.625-0.375L35,187.409l4.5,0.375c0,0-0.25-6.625,0-7.625S39.75,179.159,39.75,179.159z"/>
<polygon fill="#35467C" points="45.875,179.784 41.25,179.409 41.25,188.034 46,188.534 "/>
<polygon fill="#35467C" points="59.375,178.284 55.625,178.284 55.625,187.159 59.25,187.159 "/>
<polygon fill="#35467C" points="66.75,178.784 62.125,178.784 62,187.909 66.25,188.159 "/>
<polygon fill="#35467C" points="78.875,182.034 76.375,181.284 76.25,189.284 78.625,189.034 "/>
<path fill="#4C646B" d="M8.125,223.659c0,0-5.75,0.375-6,1.125s0.625,2,2.75,2.375s26.25-5,26.25-5L43,223.117l34.625,0.542
	l20.5,0.125c0,0,1-1.875,0.375-2.5s-61-3-61-3L8.125,223.659z"/>
<path fill="#D15037" d="M66.167,219.284c0,0,1.166-17.667,0.333-20.833c-0.833-3.167-1.833-5.333-5-5.167s-4.833,1.167-5.167,4.333
	c-0.333,3.167-0.5,21.333-0.5,21.333L66.167,219.284z"/>
<path fill="#D15037" d="M43.333,217.284c0,0,1.667-18.167,0.167-20.5s-3.5-3.833-4.833-3.5c-1.334,0.333-3,1.833-3.167,4.667
	c-0.167,2.833-0.333,20.333-0.333,20.333l7.208-0.75L43.333,217.284z"/>
<g>
	<path fill="#4C646B" d="M95.875,220.659c0,0,0.375-2.5,0.375-2.75S94,217.034,94,217.034s-1-19.75-1.5-19.875s-3.125,16-3.125,16
		l0.375,7.625L95.875,220.659z"/>
	<path fill="#4C646B" d="M15.125,220.534c0,0-0.625-20.125-1.125-21.25s-2.125,15.875-2.75,16.5s-1.875,0.75-2.375,1.5
		s-0.75,1.375,0.375,2s0.125,0.375-0.25,2.125S15.125,220.534,15.125,220.534z"/>
	<path fill="#4C646B" d="M26,218.034l-0.375-3.875l1.5,0.125l2.5-21.125c0,0,2.25,20.375,2.375,21.125s0,2.625,0,2.625L26,218.034z"
		/>
	<path fill="#4C646B" d="M42.375,217.534c0,0,0.75-1.875,0.375-2s-1.375-0.125-1.75-0.25s-0.25-1-0.25-1.75
		s-1.875-1.125-1.875-1.125L37,192.284l-2.375,20.5l-1.875,0.375l-0.25,3.5L42.375,217.534z"/>
	<path fill="#4C646B" d="M83.75,220.409v-1.625l1.75-0.125v-1.75l1.125-0.25c0,0,0.75-19.75,1.5-20.125s1,19.125,1,19.125
		l0.625,5.125l-6.125,0.125L83.75,220.409z"/>
</g>
<polygon fill="#E0BC0A" points="50.813,78.034 41.563,78.159 39.438,85.159 50.5,85.284 "/>
<path fill="#E0BC0A" d="M62.646,78.321l-0.5,7.458l11.604,0.192c0,0-0.896-5.483-1.396-7.358L62.646,78.321z"/>
<polygon fill="#2B1E05" points="49.688,78.971 49.813,84.096 48.438,84.096 48.438,78.846 "/>
<polygon fill="#2B1E05" points="46.313,79.221 46.438,84.471 44.938,84.346 45.063,79.221 "/>
<polygon fill="#2B1E05" points="44.384,79.261 44.114,84.296 42.741,84.223 43.124,79.403 "/>
<polygon fill="#2B1E05" points="42,84.096 42.75,79.284 42,79.159 40.625,84.221 "/>
<polygon fill="#2B1E05" points="63.271,80.113 63.271,84.863 64.396,84.863 64.396,79.738 63.271,79.613 "/>
<polygon fill="#2B1E05" points="65.479,85.071 65.354,79.821 66.438,79.863 66.521,84.946 "/>
<polygon fill="#2B1E05" points="67.521,79.904 67.438,84.946 68.646,84.904 68.521,79.904 "/>
<polygon fill="#2B1E05" points="69.521,79.863 69.563,84.904 70.813,85.029 70.354,79.863 "/>
<polygon fill="#2B1E05" points="47.25,124.909 46.125,124.909 46.25,129.034 47.25,129.034 "/>
<polygon fill="#2B1E05" points="45.292,124.992 44.292,124.992 44.417,128.867 45.292,128.617 "/>
<polygon fill="#2B1E05" points="43.292,124.909 42.042,124.909 42.292,128.909 43.292,128.784 "/>
<polygon fill="#2B1E05" points="41.207,124.893 40.208,124.834 40.21,129.091 41.223,128.9 "/>
<polygon fill="#2B1E05" points="56.542,124.284 56.75,128.784 57.75,128.617 57.542,124.409 "/>
<polygon fill="#2B1E05" points="58.542,124.159 58.542,128.409 59.542,128.534 59.542,124.284 "/>
<polygon fill="#2B1E05" points="60.417,124.284 60.542,128.784 61.792,128.534 61.542,124.284 "/>
<polygon fill="#2B1E05" points="62.333,124.575 62.333,128.575 63.333,128.575 63.083,124.575 "/>
<polygon fill="#2B1E05" points="71.25,124.784 71.125,128.534 71.875,128.659 72.125,125.034 "/>
<polygon fill="#2B1E05" points="73,125.284 72.625,128.534 73.375,128.534 73.875,125.534 "/>
<polygon fill="#2B1E05" points="74.407,125.741 74.216,128.961 74.906,128.958 75.165,125.793 "/>
<polygon fill="#2B1E05" points="71.396,85.029 71.271,79.779 72.354,79.821 72.438,84.904 "/>
<g id="Clock">
	<path fill="#4C646B" d="M54.375,161.784c-1.25,2.75-1.5,6.75-0.625,8.625s2.594,4.844,6,5.375c2.236,0.349,6.237,0.113,7.75-1.5
		c1.875-2,2.813-4.438,2.906-7.125c0.066-1.891-0.281-4.875-1.781-6.25s-4.438-3.125-6.75-3.125
		C59.75,157.784,55.625,159.034,54.375,161.784z"/>
	<polygon fill="#E0AC2B" points="67.33,172.196 66.639,171.607 66.439,171.784 67.138,172.353 	"/>
	<polygon fill="#E0AC2B" points="66.095,173.402 65.529,172.692 65.3,172.828 65.877,173.519 	"/>
	<polygon fill="#E0AC2B" points="63.911,174.329 63.69,173.448 63.425,173.477 63.664,174.345 	"/>
	<polygon fill="#E0AC2B" points="54.105,164.879 54.984,165.107 55.086,164.861 54.21,164.655 	"/>
	<polygon fill="#E0AC2B" points="54.884,163.046 55.66,163.517 55.828,163.311 55.048,162.861 	"/>
	<polygon fill="#E0AC2B" points="56.002,161.504 56.679,162.109 56.882,161.937 56.197,161.352 	"/>
	<polygon fill="#E0AC2B" points="57.467,160.062 58.017,160.784 58.249,160.654 57.688,159.949 	"/>
	<polygon fill="#E0AC2B" points="59.655,159.013 59.856,159.898 60.122,159.876 59.903,159.002 	"/>
	<polygon fill="#E0AC2B" points="59.754,174.312 59.964,173.428 59.716,173.331 59.527,174.211 	"/>
	<polygon fill="#E0AC2B" points="57.903,173.461 58.358,172.675 58.148,172.511 57.715,173.3 	"/>
	<polygon fill="#E0AC2B" points="56.417,172.373 57.008,171.684 56.832,171.484 56.261,172.18 	"/>
	<polygon fill="#E0AC2B" points="55.214,171.135 55.925,170.571 55.79,170.341 55.098,170.917 	"/>
	<polygon fill="#E0AC2B" points="54.293,168.949 55.174,168.73 55.146,168.465 54.277,168.702 	"/>
	<polygon fill="#E0AC2B" points="69.26,168.854 68.376,168.647 68.279,168.895 69.161,169.082 	"/>
	<polygon fill="#E0AC2B" points="68.414,170.707 67.627,170.254 67.463,170.464 68.254,170.896 	"/>
	<polygon fill="#E0AC2B" points="62,158.367 62,159.825 61.625,159.825 61.583,158.325 	"/>
	<polygon fill="#E0AC2B" points="69.844,166.669 68.469,166.627 68.469,167.211 69.802,167.148 	"/>
	<polygon fill="#E0AC2B" points="61.625,173.638 61.625,175.242 61.208,175.242 61.167,173.659 	"/>
	<polygon fill="#E0AC2B" points="53.625,166.575 55.042,166.575 55.042,166.992 53.667,166.992 	"/>
	<polygon fill="#E0AC2B" points="63.988,159.1 63.757,159.978 64.002,160.082 64.212,159.206 	"/>
	<polygon fill="#E0AC2B" points="65.816,159.997 65.343,160.771 65.548,160.94 66.001,160.163 	"/>
	<polygon fill="#E0AC2B" points="67.275,161.122 66.667,161.796 66.838,162 67.427,161.319 	"/>
	<polygon fill="#E0AC2B" points="68.446,162.39 67.722,162.936 67.851,163.169 68.558,162.611 	"/>
	<polygon fill="#E0AC2B" points="69.313,164.598 68.426,164.795 68.447,165.061 69.321,164.846 	"/>
	<circle fill="#E0AC2B" cx="61.939" cy="166.896" r="0.969"/>
</g>
<g id="Door">
	<path fill="#091D1E" d="M48.333,468.034c0,0-0.666-9.833-0.666-10.833s-0.334-4.667,0.833-6c1.167-1.334,1.95-3.167,3.625-3.167
		c4.164,0,2.985,0.659,4.042,1.833c1.104,1.227,2.166,4.667,2.333,6.834c0.167,2.166-0.083,11.416-0.083,11.416L48.333,468.034z"/>
	<polygon fill="#989189" points="57.813,456.721 47.875,456.159 48.333,468.034 58,468.034 	"/>
	<polygon fill="#091D1E" points="57,457.346 53.5,457.346 53.438,464.659 57.125,464.909 	"/>
	<polygon fill="#091D1E" points="52.375,457.409 52.5,464.596 49,464.659 48.75,457.096 	"/>
	<polygon fill="#989189" points="54.25,458.346 54.063,463.909 56.25,463.909 56.438,458.159 	"/>
	<polygon fill="#989189" points="51.813,458.096 51.813,463.909 49.563,463.971 49.375,457.909 	"/>
	<path fill="#989189" d="M58,455.471l-10.125-0.25c0,0-0.625-2.167,0.625-4.021c1.25-1.854,2.938-3.229,3.625-3.167
		s2.583,0.667,3.313,1.25s2.063,1.708,2.188,2.688S58,455.471,58,455.471z"/>
	<path fill="#091D1E" d="M52.25,449.346l0.125,4.563l-3.625,0.125c0,0-0.438-0.5,0.063-1.625s1.563-2.313,2-2.75
		S52.25,449.346,52.25,449.346z"/>
	<path fill="#091D1E" d="M53.063,449.284l0.125,4.438l3.688,0.25c0,0-0.063-1.375-0.313-2.063s-0.75-1.25-1.313-1.688
		S53.063,449.284,53.063,449.284z"/>
	<polygon fill="#091D1E" points="52.563,448.034 52.938,468.096 53.375,468.159 52.875,448.159 	"/>
	<path fill="#595D4F" d="M59.333,468.201L58,468.034c0,0-0.167-7-0.167-8s0.167-6.333-0.333-7.333s-0.688-1.854-1.833-3
		c-0.897-0.897-2.271-1.167-3.104-1.667c0,0,0.938-0.333,2.271,0.167c1.334,0.5,3.103,1.746,3.667,3
		c0.938,2.083,0.938,6.75,0.938,7.583S59.333,468.201,59.333,468.201z"/>
	<path fill="#DBBF8F" d="M43.167,444.534c0,0,0.166-0.5,0.5-1.167C44,442.701,44,442.701,44,442.701l0.167-8.334l-1-0.166
		c0,0,2.5-4.334,5.833-4.334s8.833,1,10.5,2.167s2.5,1.833,2.667,2.667c0.166,0.833-0.834,1.5-0.834,1.5l0.167,6.333
		c0,0,0.833,1.167,1.667,1.667c0.833,0.5-0.334,1.166-0.334,1.166l0.729,22.792l-4.229,0.042c0,0,0.167-13.334-0.166-15.167
		c-0.334-1.833-1.667-3.667-3-4.333c-1.334-0.667-3-1-4.334-0.5c-1.333,0.5-2.333,1.5-3,3c-0.666,1.5-0.896,3.021-0.833,6
		c0.063,3.018,0.333,10.333,0.333,10.833l-4.646-0.063L43.167,444.534z"/>
	<path fill="#595D4F" d="M57.833,436.201c0,0,1.167-0.167,1.334,1c0.166,1.166,0,3.333,0,3.333s-0.167,0.833-0.834,0.833
		c-0.526,0-7.093-0.132-9.609-0.176c-0.676-0.012-1.264-0.452-1.474-1.095c-0.403-1.229-0.386-3.122,0.083-3.729
		C48.171,435.283,57.833,436.201,57.833,436.201z"/>
</g>
<g id="Windows">
	<path fill="#091D1E" d="M48.875,420.909H42.25L42,407.171c0,0,1.625-3.882,3-4.031s2.75,0.448,3.25,1.344s0.5,15.827,0.5,15.827
		L48.875,420.909z"/>
	<path fill="#091D1E" d="M65.375,421.534l-6.625-0.135c0,0-0.875-15.275-0.125-15.682c0.75-0.405,3.375-2.433,4.5-1.216
		c1.125,1.216,1.625,1.757,1.75,3.379S65.375,421.534,65.375,421.534z"/>
	<path fill="#091D1E" d="M50.375,380.034l-6.375,0.5l-0.375-14c0,0,0-4.875,2.125-5s4,0.125,4.5,2.5s-0.125,15.5-0.125,15.5
		L50.375,380.034z"/>
	<path fill="#091D1E" d="M66.125,380.159h-7.25l-0.125-14.75c0,0,0.625-4,2.25-4.375s3.625,0,4.25,1S66.125,380.159,66.125,380.159z
		"/>
	<path fill="#2B1E05" d="M57.75,259.909c0,0,0.75-22.125,0-23.5s-1.5-3.25-2.875-2.25s-2,7.875-2,9.25s0.375,16.25,0.375,16.875
		s4.5,0.5,4.5,0.5V259.909z"/>
	<path fill="#2B1E05" d="M72.125,261.409c0,0,2-20.5,0.625-22.875s-1.625-3-2.875-2.375s-1.625,1.375-2.125,5
		s-1.5,15.5-1.625,16.375s-0.25,3.625-0.25,3.625L72.125,261.409z"/>
</g>
<polygon fill="#2B1E05" points="49.12,124.892 48.122,124.835 48.13,129.092 49.142,128.899 "/>
<polygon fill="#2B1E05" points="63.958,124.492 63.958,128.742 64.958,128.867 64.958,124.617 "/>
<polygon fill="#2B1E05" points="75.702,126.007 75.672,129.233 76.361,129.195 76.462,126.021 "/>
<polygon fill="#4C646B" points="54.875,49.471 52.188,86.534 61.125,87.096 61.938,49.409 "/>
<path fill="#2B1E05" d="M60.375,51.221c-0.515-0.662-2.625-1.25-3.188-0.875s-1.563,1.125-1.688,1.875s-2.25,26.75-2.25,26.75
	l7.688-0.313C60.938,78.659,61.688,52.909,60.375,51.221z"/>
<polygon fill="#E0BC0A" points="61.168,78.409 53.043,78.221 52.543,85.159 60.918,85.534 "/>
<polygon fill="#2B1E05" points="53.688,79.034 53.188,84.596 54.188,84.659 54.563,79.159 "/>
<polygon fill="#2B1E05" points="55.063,79.221 54.813,84.721 55.75,84.721 55.938,79.096 "/>
<polygon fill="#2B1E05" points="56.688,79.221 56.375,84.784 57.375,84.784 57.438,79.096 "/>
<polygon fill="#2B1E05" points="58.125,79.284 57.875,84.596 58.625,84.659 58.813,79.159 "/>
<polygon fill="#2B1E05" points="59.5,79.346 59.313,84.846 60.188,84.909 60.375,79.221 "/>
<polygon fill="#2B1E05" points="47,79.159 46.938,84.096 47.813,84.096 47.75,78.971 "/>
<polygon fill="#E0BC0A" points="79.313,88.784 79.344,94.346 69.625,92.659 41.875,91.784 33.188,93.596 33.125,87.659 
	41.082,86.067 41.25,86.034 69,87.159 "/>
<g>
	<path fill="#F3E3A6" d="M34.25,137.034c0,0-0.5,3,0.75,4.25s0.75,12,0.75,12l-4.75-0.25L34.25,137.034z"/>
	<path fill="#F3E3A6" d="M58.125,151.909c0,0,0.75-6.375-0.75-8.375s-2.5-3-2.75-4s-3.375-1.625-3.375-1.625s-0.125,2.375-1.375,4.5
		s-3.563,8.063-3.563,9.063L58.125,151.909z"/>
	<path fill="#F3E3A6" d="M68.375,136.784c0,0,0.375,2.125-0.875,4.375s-2.627,8.375-2.875,11.25l9.875,1.625
		c0,0,0.625-2.125-0.375-5.25s-2.75-5-3.125-6.5s-0.625-5.125-0.625-5.125L68.375,136.784z"/>
</g>
<path fill="#7A6435" d="M21.125,154.534c0,1-0.125,1.75,0.875,2.25s0.625,0.875,0.875,1.625c0.231,0.692,9.415-2.345,10.82-2.815
	c0.124-0.042,0.247-0.065,0.377-0.074l13.99-0.982c0.042-0.003,0.083-0.004,0.125-0.004l11.712,0.124c0.067,0,0.134,0.006,0.2,0.015
	l15.766,2.217c0.09,0.013,0.178,0.033,0.264,0.061l9.269,3.012c0.444,0.145,0.931,0.089,1.32-0.167
	c0.423-0.279,0.9-0.729,1.032-1.387c0.25-1.25,1.125-2.875-0.375-2.625c-1.436,0.239-13.297-2.271-14.307-2.485
	c-0.051-0.011-0.095-0.018-0.146-0.023l-6.797-0.742l-17.724-1.487c-0.101-0.008-0.201-0.007-0.303,0.004l-26.849,2.983
	L21.125,154.534z"/>
</svg>
